<svg width="16" height="16" viewBox="0 0 16 16" fill="none" xmlns="http://www.w3.org/2000/svg">
<path d="M5.91325 12.7067H11.2466C11.5199 12.7067 11.7466 12.48 11.7466 12.2067C11.7466 11.9333 11.5199 11.7067 11.2466 11.7067H5.91325C4.35325 11.7067 3.07992 10.4333 3.07992 8.87333C3.07992 7.31333 4.35325 6.04 5.91325 6.04L13.2466 6.04C13.5199 6.04 13.7466 5.81333 13.7466 5.54C13.7466 5.26667 13.5199 5.04 13.2466 5.04L5.91325 5.04C3.79992 5.04 2.07992 6.76 2.07992 8.87333C2.07992 10.9867 3.79992 12.7067 5.91325 12.7067Z" fill="#505B6A"/>
<path d="M11.7132 7.70667C11.8399 7.70667 11.9665 7.66 12.0665 7.56L13.7732 5.85333C13.9665 5.66 13.9665 5.34 13.7732 5.14666L12.0665 3.44C11.8732 3.24666 11.5532 3.24666 11.3599 3.44C11.1665 3.63333 11.1665 3.95333 11.3599 4.14666L12.7132 5.5L11.3599 6.85333C11.1665 7.04666 11.1665 7.36667 11.3599 7.56C11.4532 7.66 11.5865 7.70667 11.7132 7.70667Z" fill="#505B6A"/>
</svg>
