<svg width="16" height="16" viewBox="0 0 16 16" fill="none" xmlns="http://www.w3.org/2000/svg">
<path d="M9.33331 4.50004H6.66665C6.02665 4.50004 4.83331 4.50004 4.83331 2.66671C4.83331 0.833374 6.02665 0.833374 6.66665 0.833374H9.33331C9.97331 0.833374 11.1666 0.833374 11.1666 2.66671C11.1666 3.30671 11.1666 4.50004 9.33331 4.50004ZM6.66665 1.83337C6.00665 1.83337 5.83331 1.83337 5.83331 2.66671C5.83331 3.50004 6.00665 3.50004 6.66665 3.50004H9.33331C10.1666 3.50004 10.1666 3.32671 10.1666 2.66671C10.1666 1.83337 9.99331 1.83337 9.33331 1.83337H6.66665Z" fill="#505B6A"/>
<path d="M10 15.1667H6C2.25333 15.1667 1.5 13.4467 1.5 10.6667V6.6667C1.5 3.6267 2.6 2.3267 5.30667 2.1867C5.58 2.17337 5.82 2.38004 5.83333 2.66004C5.84667 2.94004 5.63333 3.1667 5.36 3.18004C3.46667 3.2867 2.5 3.85337 2.5 6.6667V10.6667C2.5 13.1334 2.98667 14.1667 6 14.1667H10C13.0133 14.1667 13.5 13.1334 13.5 10.6667V6.6667C13.5 3.85337 12.5333 3.2867 10.64 3.18004C10.3667 3.1667 10.1533 2.9267 10.1667 2.65337C10.18 2.38004 10.42 2.1667 10.6933 2.18004C13.4 2.3267 14.5 3.6267 14.5 6.66004V10.66C14.5 13.4467 13.7467 15.1667 10 15.1667Z" fill="#505B6A"/>
</svg>
