<svg width="14" height="14" viewBox="0 0 14 14" fill="none" xmlns="http://www.w3.org/2000/svg">
<path d="M8.60417 13.2708H5.97917V9.04167H5.42499C5.08666 9.04167 4.8125 8.76751 4.8125 8.42917V7.32083C4.8125 6.98249 5.08666 6.70833 5.42499 6.70833H5.97917V5.25C5.97917 4.0425 6.95917 3.0625 8.16667 3.0625H9.74167C10.08 3.0625 10.3542 3.33666 10.3542 3.67499V5.07501C10.3542 5.41334 10.08 5.6875 9.74167 5.6875H8.60417V6.70833H9.70084C9.8875 6.70833 10.0567 6.79 10.1733 6.93C10.29 7.07 10.3367 7.25667 10.3017 7.4375L10.08 8.54583C10.0217 8.83166 9.77083 9.03583 9.47917 9.03583H8.60417V13.2708ZM6.85417 12.3958H7.72917V8.16667H9.26918L9.38583 7.58333H7.73501V5.42499C7.73501 5.08666 8.00917 4.8125 8.3475 4.8125H9.48501V3.9375H8.16667C7.44333 3.9375 6.85417 4.52667 6.85417 5.25V7.58333H5.6875V8.16667H6.85417V12.3958Z" fill="#A5B9CC"/>
<path d="M8.75008 13.2708H5.25008C2.08258 13.2708 0.729248 11.9175 0.729248 8.75V5.25C0.729248 2.0825 2.08258 0.729164 5.25008 0.729164H8.75008C11.9176 0.729164 13.2709 2.0825 13.2709 5.25V8.75C13.2709 11.9175 11.9176 13.2708 8.75008 13.2708ZM5.25008 1.60416C2.56091 1.60416 1.60425 2.56083 1.60425 5.25V8.75C1.60425 11.4392 2.56091 12.3958 5.25008 12.3958H8.75008C11.4392 12.3958 12.3959 11.4392 12.3959 8.75V5.25C12.3959 2.56083 11.4392 1.60416 8.75008 1.60416H5.25008Z" fill="#A5B9CC"/>
</svg>
