<svg width="135" height="27" viewBox="0 0 135 27" fill="none" xmlns="http://www.w3.org/2000/svg">
<g clip-path="url(#clip0_4_50)">
<path d="M33.2247 22.3158V5.35645H36.8584V12.3539H44.2351V5.35645H47.8605V22.3158H44.2351V15.3101H36.8584V22.3158H33.2247ZM59.0555 16.9001V9.59626H62.6306V22.3158H59.1982V20.0054H59.0638C58.7731 20.7507 58.2894 21.3497 57.6122 21.8024C56.9409 22.2551 56.121 22.4814 55.1531 22.4814C54.2917 22.4814 53.5334 22.2882 52.8791 21.9018C52.2244 21.5153 51.7124 20.9661 51.3435 20.2539C50.9795 19.5418 50.7948 18.6888 50.7894 17.695V9.59626H54.3645V17.0657C54.3698 17.8165 54.5741 18.41 54.9772 18.8461C55.3798 19.2823 55.9197 19.5003 56.5969 19.5003C57.0278 19.5003 57.4304 19.4037 57.8052 19.2105C58.1799 19.0118 58.4824 18.7191 58.7115 18.3326C58.9466 17.9462 59.0614 17.4687 59.0555 16.9001ZM65.5573 22.3158V5.35645H69.1324V11.7328H69.2413C69.3982 11.3906 69.6249 11.0427 69.9215 10.6894C70.2234 10.3306 70.6148 10.0325 71.0961 9.795C71.5827 9.5521 72.1871 9.4307 72.9088 9.4307C73.8488 9.4307 74.7161 9.6736 75.5106 10.1594C76.305 10.6397 76.9397 11.3657 77.4156 12.3373C77.891 13.3034 78.129 14.5152 78.129 15.9726C78.129 17.3915 77.8964 18.5894 77.4322 19.5665C76.9734 20.5382 76.347 21.2752 75.5526 21.7776C74.7635 22.2744 73.8796 22.5229 72.9005 22.5229C72.2067 22.5229 71.6164 22.4096 71.1298 22.1833C70.6485 21.957 70.2542 21.6727 69.9464 21.3303C69.6386 20.9826 69.4036 20.6321 69.2413 20.2788H69.0821V22.3158H65.5573ZM69.0567 15.9561C69.0567 16.7124 69.1632 17.372 69.3757 17.9352C69.5883 18.4984 69.8961 18.9372 70.2987 19.2518C70.7018 19.561 71.1913 19.7156 71.7674 19.7156C72.3493 19.7156 72.8418 19.5582 73.2444 19.2437C73.6475 18.9234 73.9524 18.4818 74.1591 17.9186C74.3721 17.35 74.4782 16.6958 74.4782 15.9561C74.4782 15.2218 74.3746 14.5759 74.1679 14.0183C73.9607 13.4608 73.6558 13.0245 73.2527 12.7099C72.8501 12.3952 72.3552 12.2379 71.7674 12.2379C71.186 12.2379 70.6935 12.3898 70.2909 12.6933C69.8931 12.997 69.5883 13.4276 69.3757 13.9852C69.1632 14.5428 69.0567 15.1997 69.0567 15.9561Z" fill="#F2F2F2"/>
<path d="M80.5143 22.316V9.59643H83.9213V11.8406H84.0723C84.3411 11.0953 84.7886 10.5073 85.4155 10.0768C86.0419 9.64619 86.7914 9.43086 87.6645 9.43086C88.5484 9.43086 89.3008 9.64889 89.9218 10.0849C90.5428 10.5156 90.9567 11.1008 91.1639 11.8406H91.2982C91.5611 11.1119 92.0365 10.5295 92.7249 10.0932C93.4187 9.65163 94.2381 9.43086 95.1836 9.43086C96.3865 9.43086 97.3627 9.80901 98.1127 10.5653C98.8681 11.3161 99.2453 12.3816 99.2453 13.7618V22.316H95.679V14.4573C95.679 13.7507 95.4885 13.2207 95.1083 12.8674C94.7277 12.514 94.2523 12.3375 93.6816 12.3375C93.0327 12.3375 92.5261 12.5417 92.1626 12.9502C91.799 13.3533 91.6168 13.886 91.6168 14.5485V22.316H88.1512V14.3828C88.1512 13.759 87.9694 13.2622 87.6054 12.8923C87.2477 12.5223 86.7748 12.3375 86.1875 12.3375C85.7902 12.3375 85.4321 12.4368 85.113 12.6356C84.7998 12.8287 84.5507 13.1021 84.3665 13.4554C84.1818 13.8032 84.0894 14.2117 84.0894 14.6809V22.316H80.5143ZM102.069 22.316V9.59643H105.644V22.316H102.069ZM103.865 7.95681C103.334 7.95681 102.878 7.78294 102.497 7.43513C102.123 7.08186 101.935 6.6595 101.935 6.1681C101.935 5.6823 102.123 5.26553 102.497 4.91767C102.878 4.56441 103.334 4.3877 103.865 4.3877C104.397 4.3877 104.85 4.56441 105.225 4.91767C105.605 5.26553 105.795 5.6823 105.795 6.1681C105.795 6.6595 105.605 7.08186 105.225 7.43513C104.85 7.78294 104.397 7.95681 103.865 7.95681ZM112.083 14.9625V22.316H108.508V9.59643H111.916V11.8406H112.067C112.352 11.1008 112.83 10.5156 113.502 10.0849C114.173 9.64889 114.987 9.43086 115.944 9.43086C116.839 9.43086 117.62 9.62401 118.285 10.0104C118.951 10.3969 119.468 10.9491 119.838 11.6667C120.207 12.3788 120.391 13.229 120.391 14.2172V22.316H116.816V14.8466C116.822 14.0681 116.621 13.4609 116.212 13.0248C115.804 12.5831 115.242 12.3623 114.525 12.3623C114.044 12.3623 113.619 12.4644 113.25 12.6687C112.886 12.8729 112.601 13.1711 112.394 13.563C112.192 13.9495 112.089 14.416 112.083 14.9625ZM129.084 22.5645C127.757 22.5645 126.616 22.2994 125.659 21.7694C124.709 21.234 123.976 20.4777 123.461 19.5005C122.946 18.5178 122.689 17.3557 122.689 16.0142C122.689 14.7058 122.946 13.5574 123.461 12.5694C123.976 11.5811 124.7 10.8109 125.635 10.2589C126.574 9.70679 127.676 9.43086 128.941 9.43086C129.792 9.43086 130.583 9.5661 131.316 9.83663C132.054 10.1015 132.698 10.5018 133.246 11.0373C133.8 11.5728 134.231 12.2464 134.538 13.0579C134.846 13.864 135 14.8079 135 15.89V16.8588H124.115V14.6726H131.635C131.635 14.1648 131.523 13.7148 131.299 13.3228C131.076 12.9309 130.765 12.6245 130.368 12.4037C129.976 12.1773 129.52 12.0641 129 12.0641C128.457 12.0641 127.976 12.1883 127.556 12.4368C127.142 12.6797 126.818 13.0082 126.583 13.4222C126.348 13.8308 126.228 14.2862 126.222 14.7886V16.8671C126.222 17.4964 126.339 18.0403 126.574 18.4985C126.815 18.9567 127.154 19.31 127.59 19.5584C128.026 19.8069 128.544 19.9311 129.142 19.9311C129.539 19.9311 129.903 19.8759 130.233 19.7654C130.564 19.655 130.846 19.4895 131.081 19.2686C131.316 19.0478 131.495 18.7773 131.618 18.4571L134.924 18.6724C134.757 19.4563 134.413 20.1408 133.892 20.726C133.377 21.3057 132.712 21.7584 131.895 22.0841C131.084 22.4044 130.147 22.5645 129.084 22.5645Z" fill="#F1F1F1"/>
<path d="M22.6902 27H4.6714C2.09083 27 0 24.9356 0 22.3903V4.60967C0 2.06321 2.09205 0 4.6714 0H22.6902C25.2708 0 27.3616 2.06441 27.3616 4.60967V22.3903C27.3628 24.9368 25.2708 27 22.6902 27Z" fill="#DCDCDC"/>
<path d="M20.8521 18.8073H12.1163C10.569 18.8073 9.60537 17.2093 10.387 15.9379L14.7543 8.83961C15.5286 7.58146 17.4387 7.58146 18.213 8.83961L22.5803 15.9379C23.3631 17.2093 22.3995 18.8073 20.8521 18.8073Z" fill="white"/>
<path d="M14.8764 19.1013H6.44103C4.94616 19.1013 4.01678 17.5575 4.77153 16.3306L8.98859 9.47702C9.73605 8.26222 11.5814 8.26222 12.3276 9.47702L16.5447 16.3306C17.3006 17.5587 16.37 19.1013 14.8764 19.1013Z" fill="#F2F2F2"/>
</g>
<defs>
<clipPath id="clip0_4_50">
<rect width="135" height="27" fill="white"/>
</clipPath>
</defs>
</svg>
