<svg width="100" height="100" viewBox="0 0 156 163" fill="none" xmlns="http://www.w3.org/2000/svg">
<path d="M43.2366 10.2671H112.145C122.603 10.2671 129.496 10.2872 134.606 10.9743C139.444 11.6247 141.246 12.7131 142.362 13.8287C143.478 14.9445 144.566 16.7467 145.217 21.5849C145.903 26.6951 145.924 33.5873 145.924 44.0456V119.71C145.924 130.168 145.903 137.06 145.217 142.171C144.566 147.008 143.478 148.811 142.362 149.927C141.246 151.043 139.444 152.13 134.606 152.782C129.496 153.468 122.603 153.489 112.145 153.489H43.2366C32.7783 153.489 25.886 153.468 20.7757 152.782C15.9376 152.13 14.1354 151.043 13.0197 149.927C11.904 148.811 10.8156 147.008 10.1652 142.171C9.47811 137.06 9.45801 130.168 9.45801 119.71V44.0456C9.45801 33.5873 9.47811 26.6951 10.1652 21.5849C10.8156 16.7467 11.904 14.9445 13.0197 13.8287C14.1354 12.7131 15.9376 11.6247 20.7757 10.9743C25.886 10.2872 32.7783 10.2671 43.2366 10.2671Z" stroke="url(#paint0_linear_209_2)" stroke-width="18.916"/>
<path d="M110.794 65.6642C110.794 70.1 109.92 74.4923 108.223 78.5906C106.525 82.6889 104.037 86.4125 100.9 89.5493C97.7637 92.6858 94.0401 95.174 89.9418 96.8714C85.8435 98.5691 81.4512 99.4427 77.0154 99.4427C72.5796 99.4427 68.187 98.5691 64.0887 96.8714C59.9907 95.174 56.2668 92.6858 53.1303 89.5493C49.9935 86.4125 47.5056 82.6889 45.8079 78.5906C44.1102 74.4923 43.2366 70.1 43.2366 65.6642H56.7927C56.7927 68.3198 57.3156 70.9496 58.332 73.403C59.3484 75.8567 60.8379 78.086 62.7156 79.9637C64.5936 81.8417 66.8229 83.3312 69.2763 84.3476C71.73 85.3637 74.3595 85.8869 77.0154 85.8869C79.671 85.8869 82.3008 85.3637 84.7542 84.3476C87.2079 83.3312 89.4372 81.8417 91.3149 79.9637C93.1929 78.086 94.6824 75.8567 95.6988 73.403C96.7149 70.9496 97.2381 68.3198 97.2381 65.6642H110.794Z" fill="white"/>
<defs>
<linearGradient id="paint0_linear_209_2" x1="77.691" y1="0.80911" x2="77.691" y2="162.946" gradientUnits="userSpaceOnUse">
<stop stop-color="#32FFE6"/>
<stop offset="1" stop-color="#3284FF"/>
</linearGradient>
</defs>
</svg>
