<svg width="16" height="16" viewBox="0 0 16 16" fill="none" xmlns="http://www.w3.org/2000/svg">
<path d="M8.00001 9.44667C6.58001 9.44667 5.42001 8.29333 5.42001 6.86667C5.42001 5.44 6.58001 4.29333 8.00001 4.29333C9.42001 4.29333 10.58 5.44667 10.58 6.87334C10.58 8.3 9.42001 9.44667 8.00001 9.44667ZM8.00001 5.29333C7.13335 5.29333 6.42001 6 6.42001 6.87334C6.42001 7.74667 7.12668 8.45333 8.00001 8.45333C8.87335 8.45333 9.58001 7.74667 9.58001 6.87334C9.58001 6 8.86668 5.29333 8.00001 5.29333Z" fill="#505B6A"/>
<path d="M8 15.1734C7.01333 15.1734 6.01999 14.8 5.24666 14.06C3.28 12.1667 1.10666 9.14671 1.92666 5.55337C2.66666 2.29337 5.51333 0.833374 8 0.833374C8 0.833374 8 0.833374 8.00666 0.833374C10.4933 0.833374 13.34 2.29337 14.08 5.56004C14.8933 9.15337 12.72 12.1667 10.7533 14.06C9.97999 14.8 8.98666 15.1734 8 15.1734ZM8 1.83337C6.06 1.83337 3.56666 2.86671 2.90666 5.77337C2.18666 8.91337 4.16 11.62 5.94666 13.3334C7.1 14.4467 8.90666 14.4467 10.06 13.3334C11.84 11.62 13.8133 8.91337 13.1067 5.77337C12.44 2.86671 9.93999 1.83337 8 1.83337Z" fill="#505B6A"/>
</svg>
