<svg width="12" height="12" viewBox="0 0 12 12" fill="none" xmlns="http://www.w3.org/2000/svg">
<path d="M5.88 0.557999C6.57067 0.557999 7.224 0.679333 7.84 0.922C8.46533 1.15533 9.02067 1.50533 9.506 1.972C9.99133 2.42933 10.374 2.98933 10.654 3.652C10.934 4.30533 11.074 5.052 11.074 5.892C11.074 6.05067 11.06 6.26533 11.032 6.536C11.0133 6.80667 10.9667 7.096 10.892 7.404C10.8173 7.712 10.7007 8.006 10.542 8.286C10.3927 8.55667 10.1873 8.78067 9.926 8.958C9.66467 9.13533 9.338 9.224 8.946 9.224C8.61933 9.224 8.36733 9.16333 8.19 9.042C8.01267 8.92067 7.88667 8.77133 7.812 8.594C7.74667 8.40733 7.7 8.216 7.672 8.02C7.40133 8.30933 7.056 8.54733 6.636 8.734C6.22533 8.91133 5.77733 9 5.292 9C4.61067 9 4.08333 8.818 3.71 8.454C3.346 8.09 3.164 7.628 3.164 7.068C3.164 6.564 3.29 6.16733 3.542 5.878C3.80333 5.58867 4.13467 5.38333 4.536 5.262C4.94667 5.14067 5.35733 5.08 5.768 5.08C6.16 5.08 6.50067 5.11733 6.79 5.192C7.07933 5.26667 7.294 5.332 7.434 5.388C7.434 5.01467 7.38733 4.68333 7.294 4.394C7.20067 4.10467 7.03267 3.88067 6.79 3.722C6.55667 3.56333 6.22067 3.484 5.782 3.484C5.40867 3.484 5.05867 3.54 4.732 3.652C4.41467 3.764 4.13 3.918 3.878 4.114L3.57 3.274C3.906 3.05 4.27467 2.87733 4.676 2.756C5.07733 2.63467 5.49267 2.574 5.922 2.574C6.50067 2.574 6.95333 2.66267 7.28 2.84C7.616 3.008 7.85867 3.24133 8.008 3.54C8.16667 3.82933 8.26933 4.14667 8.316 4.492C8.36267 4.828 8.386 5.15467 8.386 5.472V6.984C8.386 7.25467 8.39533 7.50667 8.414 7.74C8.442 7.97333 8.50733 8.16 8.61 8.3C8.71267 8.43067 8.87133 8.496 9.086 8.496C9.35667 8.496 9.576 8.40267 9.744 8.216C9.912 8.02933 10.0427 7.796 10.136 7.516C10.2293 7.22667 10.2947 6.93267 10.332 6.634C10.3693 6.33533 10.388 6.07867 10.388 5.864C10.388 5.20133 10.276 4.59 10.052 4.03C9.828 3.46067 9.51067 2.966 9.1 2.546C8.69867 2.126 8.22267 1.79933 7.672 1.566C7.12133 1.32333 6.51 1.202 5.838 1.202C5.194 1.202 4.592 1.31867 4.032 1.552C3.48133 1.776 3.00067 2.09333 2.59 2.504C2.18867 2.91467 1.87133 3.4 1.638 3.96C1.414 4.52 1.302 5.12667 1.302 5.78C1.302 6.424 1.40933 7.026 1.624 7.586C1.83867 8.13667 2.142 8.622 2.534 9.042C2.926 9.462 3.388 9.79333 3.92 10.036C4.46133 10.2787 5.05867 10.4 5.712 10.4C6.14133 10.4 6.524 10.3487 6.86 10.246C7.196 10.1433 7.53667 10.0173 7.882 9.868L8.106 10.484C7.72333 10.6707 7.32667 10.8107 6.916 10.904C6.50533 10.9973 6.09933 11.044 5.698 11.044C4.998 11.044 4.34 10.9133 3.724 10.652C3.11733 10.4 2.58067 10.0407 2.114 9.574C1.64733 9.10733 1.27867 8.552 1.008 7.908C0.746667 7.264 0.616 6.55467 0.616 5.78C0.616 4.95867 0.756 4.226 1.036 3.582C1.32533 2.938 1.71733 2.392 2.212 1.944C2.70667 1.496 3.26667 1.15533 3.892 0.922C4.52667 0.679333 5.18933 0.557999 5.88 0.557999ZM6.636 7.866C6.84133 7.76333 7 7.65133 7.112 7.53C7.224 7.39933 7.30333 7.264 7.35 7.124C7.39667 6.97467 7.42 6.82533 7.42 6.676V6.144C7.28933 6.116 7.07933 6.06 6.79 5.976C6.50067 5.892 6.16 5.85 5.768 5.85C5.46933 5.85 5.194 5.88733 4.942 5.962C4.69 6.03667 4.48933 6.16267 4.34 6.34C4.19067 6.508 4.116 6.73667 4.116 7.026C4.116 7.24067 4.16733 7.43667 4.27 7.614C4.37267 7.782 4.51733 7.91733 4.704 8.02C4.89067 8.11333 5.11467 8.16 5.376 8.16C5.58133 8.16 5.796 8.132 6.02 8.076C6.25333 8.02 6.45867 7.95 6.636 7.866Z" fill="#A5B9CC"/>
</svg>
