<svg width="177" height="65" viewBox="0 0 177 65" fill="none" xmlns="http://www.w3.org/2000/svg">
<path d="M14.4122 6.75571H37.3817C40.8678 6.75571 43.1652 6.76242 44.8686 6.99144C46.4812 7.20825 47.082 7.57103 47.454 7.94291C47.826 8.31484 48.1886 8.91556 48.4056 10.5283C48.6344 12.2317 48.6412 14.5291 48.6412 18.0152V43.2366C48.6412 46.7226 48.6344 49.02 48.4056 50.7238C48.1886 52.3361 47.826 52.9369 47.454 53.309C47.082 53.681 46.4812 54.0435 44.8686 54.2606C43.1652 54.4894 40.8678 54.4962 37.3817 54.4962H14.4122C10.9261 54.4962 8.62866 54.4894 6.92523 54.2606C5.3125 54.0435 4.71178 53.681 4.33987 53.309C3.96797 52.9369 3.60519 52.3361 3.38837 50.7238C3.15935 49.02 3.15265 46.7226 3.15265 43.2366V18.0152C3.15265 14.5291 3.15935 12.2317 3.38837 10.5283C3.60519 8.91556 3.96797 8.31484 4.33987 7.94291C4.71178 7.57103 5.3125 7.20825 6.92523 6.99144C8.62866 6.76242 10.9261 6.75571 14.4122 6.75571Z" fill="white" stroke="url(#paint0_linear_2_26)" stroke-width="6.30534"/>
<path d="M14.4122 6.75572H37.3817C40.8678 6.75572 43.1652 6.76243 44.8686 6.99145C46.4812 7.20827 47.082 7.57105 47.454 7.94293C47.826 8.31485 48.1886 8.91557 48.4056 10.5283C48.6344 12.2317 48.6412 14.5291 48.6412 18.0153V43.2366C48.6412 46.7226 48.6344 49.02 48.4056 50.7238C48.1886 52.3361 47.826 52.937 47.454 53.309C47.082 53.681 46.4812 54.0435 44.8686 54.2606C43.1652 54.4894 40.8678 54.4962 37.3817 54.4962H14.4122C10.9261 54.4962 8.62866 54.4894 6.92523 54.2606C5.3125 54.0435 4.71178 53.681 4.33987 53.309C3.96797 52.937 3.60519 52.3361 3.38837 50.7238C3.15935 49.02 3.15265 46.7226 3.15265 43.2366V18.0153C3.15265 14.5291 3.15935 12.2317 3.38837 10.5283C3.60519 8.91557 3.96797 8.31485 4.33987 7.94293C4.71178 7.57105 5.3125 7.20827 6.92523 6.99145C8.62866 6.76243 10.9261 6.75572 14.4122 6.75572Z" fill="white" stroke="url(#paint1_linear_2_26)" stroke-width="6.30534"/>
<path d="M36.9313 25.2214C36.9313 26.7 36.6401 28.1641 36.0742 29.5302C35.5084 30.8963 34.679 32.1375 33.6335 33.1831C32.5879 34.2286 31.3467 35.058 29.9806 35.6238C28.6145 36.1897 27.1504 36.4809 25.6718 36.4809C24.1932 36.4809 22.729 36.1897 21.3629 35.6238C19.9969 35.058 18.7556 34.2286 17.7101 33.1831C16.6645 32.1375 15.8352 30.8963 15.2693 29.5302C14.7034 28.1641 14.4122 26.7 14.4122 25.2214H18.9309C18.9309 26.1066 19.1052 26.9832 19.444 27.801C19.7828 28.6189 20.2793 29.362 20.9052 29.9879C21.5312 30.6139 22.2743 31.1104 23.0921 31.4492C23.91 31.7879 24.7865 31.9623 25.6718 31.9623C26.557 31.9623 27.4336 31.7879 28.2514 31.4492C29.0693 31.1104 29.8124 30.6139 30.4383 29.9879C31.0643 29.362 31.5608 28.6189 31.8996 27.801C32.2383 26.9832 32.4127 26.1066 32.4127 25.2214H36.9313Z" fill="black"/>
<path d="M74.6598 35.2378L70.0524 40.6875V50.8931H63.5128V16.3128H70.0524V33.3552H70.3001L75.2047 26.8652L83.7755 16.3128H91.3059L79.2672 30.7295L92.2967 50.8931H84.5186L74.6598 35.2378ZM115.185 50.8931C113.797 50.8931 112.691 50.4968 111.865 49.7041C111.073 48.8785 110.577 47.7886 110.379 46.4343H110.082C109.653 48.1188 108.777 49.3902 107.456 50.2491C106.135 51.0746 104.5 51.4876 102.551 51.4876C99.9091 51.4876 97.8778 50.794 96.4578 49.4068C95.0377 48.0197 94.3275 46.17 94.3275 43.8581C94.3275 41.1829 95.2854 39.2012 97.2009 37.9131C99.1164 36.592 101.841 35.9314 105.375 35.9314H109.785V34.0488C109.785 32.5956 109.405 31.4727 108.645 30.68C107.885 29.8873 106.663 29.491 104.979 29.491C103.493 29.491 102.287 29.8212 101.362 30.4818C100.471 31.1093 99.7109 31.869 99.0835 32.7607L95.3183 29.3919C96.2763 27.9056 97.5477 26.7166 99.1331 25.8249C100.718 24.9001 102.816 24.4377 105.425 24.4377C108.926 24.4377 111.585 25.2304 113.401 26.8157C115.218 28.401 116.126 30.68 116.126 33.6525V45.8398H118.702V50.8931H115.185ZM104.682 46.8802C106.102 46.8802 107.307 46.5663 108.298 45.9389C109.289 45.3115 109.785 44.3866 109.785 43.1646V39.7462H105.722C102.419 39.7462 100.768 40.8031 100.768 42.9168V43.7591C100.768 44.816 101.098 45.6088 101.759 46.1371C102.452 46.6325 103.427 46.8802 104.682 46.8802ZM130.176 50.8931C127.996 50.8931 126.394 50.3481 125.37 49.2582C124.346 48.1683 123.834 46.6325 123.834 44.6508V14.232H130.176V45.8398H133.594V50.8931H130.176ZM148.85 51.4876C146.935 51.4876 145.217 51.1737 143.698 50.5463C142.212 49.8856 140.94 48.9776 139.883 47.8215C138.859 46.6325 138.067 45.2124 137.505 43.5609C136.944 41.8765 136.663 39.9939 136.663 37.9131C136.663 35.8654 136.927 34.0158 137.456 32.3644C138.017 30.713 138.81 29.3093 139.834 28.1533C140.858 26.9643 142.113 26.056 143.599 25.4285C145.085 24.768 146.769 24.4377 148.652 24.4377C150.667 24.4377 152.417 24.7845 153.904 25.4781C155.39 26.1717 156.612 27.113 157.57 28.302C158.528 29.491 159.238 30.8781 159.7 32.4635C160.195 34.0158 160.443 35.6837 160.443 37.4672V39.548H143.252V40.192C143.252 42.0746 143.781 43.5939 144.837 44.7499C145.894 45.8727 147.463 46.4343 149.544 46.4343C151.129 46.4343 152.417 46.1042 153.408 45.4435C154.432 44.7829 155.34 43.9407 156.133 42.9168L159.551 46.7316C158.495 48.2178 157.041 49.3902 155.192 50.2491C153.375 51.0746 151.262 51.4876 148.85 51.4876ZM148.751 29.1937C147.067 29.1937 145.729 29.7552 144.738 30.8781C143.747 32.0011 143.252 33.4543 143.252 35.2378V35.6342H153.854V35.1883C153.854 33.4048 153.408 31.9681 152.516 30.8781C151.658 29.7552 150.403 29.1937 148.751 29.1937ZM172.364 50.8931C170.184 50.8931 168.582 50.3481 167.558 49.2582C166.534 48.1683 166.022 46.6325 166.022 44.6508V14.232H172.364V45.8398H175.782V50.8931H172.364Z" fill="black"/>
<defs>
<linearGradient id="paint0_linear_2_26" x1="25.8969" y1="3.60304" x2="25.8969" y2="57.6488" gradientUnits="userSpaceOnUse">
<stop stop-color="#32FFE6"/>
<stop offset="1" stop-color="#3284FF"/>
</linearGradient>
<linearGradient id="paint1_linear_2_26" x1="25.8969" y1="3.60305" x2="25.8969" y2="57.6488" gradientUnits="userSpaceOnUse">
<stop stop-color="#32FFE6"/>
<stop offset="1" stop-color="#3284FF"/>
</linearGradient>
</defs>
</svg>
