<svg width="14" height="14" viewBox="0 0 14 14" fill="none" xmlns="http://www.w3.org/2000/svg">
<path d="M9.91675 12.3958H4.08341C1.95425 12.3958 0.729248 11.1708 0.729248 9.04167V4.95834C0.729248 2.82917 1.95425 1.60417 4.08341 1.60417H9.91675C12.0459 1.60417 13.2709 2.82917 13.2709 4.95834V9.04167C13.2709 11.1708 12.0459 12.3958 9.91675 12.3958ZM4.08341 2.47917C2.41508 2.47917 1.60425 3.29001 1.60425 4.95834V9.04167C1.60425 10.71 2.41508 11.5208 4.08341 11.5208H9.91675C11.5851 11.5208 12.3959 10.71 12.3959 9.04167V4.95834C12.3959 3.29001 11.5851 2.47917 9.91675 2.47917H4.08341Z" fill="#A5B9CC"/>
<path d="M6.99979 7.50748C6.50979 7.50748 6.01396 7.35582 5.63479 7.04665L3.80896 5.58832C3.62229 5.43665 3.58729 5.16248 3.73896 4.97582C3.89062 4.78915 4.16479 4.75415 4.35146 4.90582L6.17729 6.36415C6.62062 6.71998 7.37312 6.71998 7.81645 6.36415L9.64229 4.90582C9.82895 4.75415 10.109 4.78332 10.2548 4.97582C10.4065 5.16248 10.3773 5.44248 10.1848 5.58832L8.35896 7.04665C7.98562 7.35582 7.48979 7.50748 6.99979 7.50748Z" fill="#A5B9CC"/>
</svg>
