<svg width="136" height="27" viewBox="0 0 136 27" fill="none" xmlns="http://www.w3.org/2000/svg">
<g clip-path="url(#clip0_4_40)">
<mask id="mask0_4_40" style="mask-type:luminance" maskUnits="userSpaceOnUse" x="0" y="0" width="136" height="27">
<path d="M135.993 0H0V27H135.993V0Z" fill="white"/>
</mask>
<g mask="url(#mask0_4_40)">
<path d="M11.9832 7.38608C11.9052 6.61261 11.5708 6.01178 10.9799 5.58349C10.3891 5.15523 9.58715 4.9411 8.57425 4.9411C7.88597 4.9411 7.30483 5.03697 6.83082 5.22874C6.35681 5.41413 5.99321 5.67296 5.74002 6.00537C5.49323 6.33774 5.36987 6.71489 5.36987 7.13678C5.35688 7.48831 5.43158 7.79516 5.59386 8.05721C5.76271 8.31933 5.99321 8.54623 6.28542 8.73798C6.57763 8.92333 6.91527 9.08634 7.29832 9.22695C7.68143 9.36116 8.09051 9.47625 8.52555 9.57213L10.3176 9.99396C11.1877 10.1858 11.9864 10.4415 12.7136 10.7611C13.4408 11.0807 14.0707 11.4738 14.6031 11.9404C15.1356 12.407 15.5479 12.9567 15.8401 13.5895C16.1388 14.2224 16.2914 14.9479 16.2979 15.766C16.2914 16.9677 15.9797 18.0096 15.3629 18.8917C14.7525 19.7674 13.8694 20.4482 12.7136 20.934C11.5643 21.4134 10.1781 21.6531 8.55479 21.6531C6.94445 21.6531 5.54193 21.4102 4.34719 20.9244C3.15895 20.4386 2.23042 19.7195 1.56162 18.7671C0.899319 17.8083 0.551933 16.6225 0.51947 15.2099H4.60043C4.64588 15.8683 4.83743 16.418 5.17507 16.8591C5.5192 17.2937 5.97697 17.6229 6.54839 17.8467C7.12625 18.0639 7.77878 18.1726 8.50609 18.1726C9.22033 18.1726 9.84039 18.0704 10.3663 17.8658C10.8988 17.6613 11.3111 17.3768 11.6033 17.0125C11.8955 16.6481 12.0416 16.2295 12.0416 15.7565C12.0416 15.3154 11.9085 14.9446 11.6423 14.6442C11.3826 14.3438 10.9995 14.0881 10.493 13.8772C9.993 13.6663 9.37939 13.4745 8.65214 13.3019L6.48017 12.765C4.79847 12.3623 3.47061 11.7327 2.49664 10.8761C1.52266 10.0196 1.03892 8.86584 1.04542 7.41483C1.03892 6.22593 1.36033 5.18719 2.00965 4.2987C2.66546 3.4102 3.56477 2.71667 4.70757 2.21808C5.85033 1.7195 7.14899 1.47021 8.60344 1.47021C10.0839 1.47021 11.3761 1.7195 12.4799 2.21808C13.5902 2.71667 14.4539 3.4102 15.0706 4.2987C15.6875 5.18719 16.0057 6.21629 16.0252 7.38608H11.9832ZM21.6182 26.8978C21.0923 26.8978 20.5987 26.8562 20.1377 26.7731C19.6832 26.6964 19.3067 26.5974 19.0079 26.4759L19.943 23.4269C20.43 23.5739 20.8682 23.6538 21.2578 23.6666C21.6539 23.6794 21.9948 23.5899 22.2805 23.3981C22.5727 23.2064 22.8097 22.8804 22.9915 22.4202L23.235 21.7969L17.8684 6.64776H22.2318L25.329 17.4631H25.4849L28.6113 6.64776H33.0039L27.1894 22.9666C26.9102 23.7593 26.5303 24.4496 26.0498 25.0377C25.5758 25.6322 24.9752 26.0892 24.248 26.4088C23.5208 26.7348 22.6442 26.8978 21.6182 26.8978ZM39.2764 12.8608V21.375H35.1273V6.64776H39.0816V9.24611H39.2569C39.5881 8.38963 40.1432 7.71204 40.9224 7.21349C41.7015 6.70849 42.6463 6.45601 43.7566 6.45601C44.7956 6.45601 45.7013 6.67974 46.4741 7.1272C47.2467 7.5746 47.8473 8.21381 48.2759 9.04478C48.7045 9.86939 48.9187 10.8538 48.9187 11.9979V21.375H44.7696V12.7266C44.7761 11.8253 44.5423 11.1222 44.0684 10.6172C43.5943 10.1059 42.9418 9.85023 42.1106 9.85023C41.5523 9.85023 41.0587 9.96844 40.6302 10.2049C40.2082 10.4415 39.877 10.7866 39.6368 11.2405C39.403 11.6879 39.2829 12.228 39.2764 12.8608ZM58.9482 21.6627C57.4157 21.6627 56.0976 21.3431 54.994 20.7039C53.8963 20.0583 53.0524 19.1634 52.4616 18.0192C51.8772 16.875 51.585 15.5583 51.585 14.069C51.585 12.5604 51.8805 11.2373 52.4713 10.0995C53.0687 8.95531 53.9162 8.06357 55.0134 7.42441C56.1105 6.77879 57.4157 6.45601 58.9289 6.45601C60.234 6.45601 61.3769 6.68932 62.3574 7.15594C63.3378 7.62251 64.1141 8.27772 64.6855 9.12149C65.2564 9.96521 65.5714 10.956 65.63 12.0938H61.7144C61.6042 11.3587 61.3118 10.7674 60.8382 10.32C60.37 9.86616 59.7567 9.63926 58.9971 9.63926C58.3542 9.63926 57.7925 9.81184 57.3119 10.157C56.8378 10.4958 56.468 10.9912 56.2019 11.6432C55.9353 12.2952 55.8025 13.0846 55.8025 14.0114C55.8025 14.951 55.932 15.75 56.1917 16.4085C56.4583 17.0668 56.8313 17.5686 57.3119 17.9138C57.7925 18.2589 58.3542 18.4315 58.9971 18.4315C59.4713 18.4315 59.8965 18.3356 60.2727 18.1439C60.6555 17.9521 60.971 17.6741 61.2172 17.3097C61.4709 16.9389 61.636 16.4947 61.7144 15.977H65.63C65.5644 17.102 65.2531 18.0927 64.6952 18.9493C64.1431 19.7994 63.3798 20.4642 62.4057 20.9436C61.4317 21.423 60.2792 21.6627 58.9482 21.6627Z" fill="#F2F2F2"/>
<path d="M86.6966 21.6625C85.1844 21.6625 83.8755 21.3461 82.7719 20.7133C81.6748 20.0741 80.8271 19.1856 80.2298 18.0478C79.6326 16.9036 79.3337 15.5773 79.3337 14.0688C79.3337 12.5475 79.6326 11.2179 80.2298 10.0801C80.8271 8.93597 81.6748 8.04745 82.7719 7.41465C83.8755 6.77544 85.1844 6.45583 86.6966 6.45583C88.2098 6.45583 89.5149 6.77544 90.6126 7.41465C91.7157 8.04745 92.5666 8.93597 93.1638 10.0801C93.7616 11.2179 94.0604 12.5475 94.0604 14.0688C94.0604 15.5773 93.7616 16.9036 93.1638 18.0478C92.5666 19.1856 91.7157 20.0741 90.6126 20.7133C89.5149 21.3461 88.2098 21.6625 86.6966 21.6625ZM86.7159 18.4985C87.4045 18.4985 87.9797 18.3067 88.4398 17.9232C88.901 17.5333 89.2483 17.0027 89.4821 16.3315C89.723 15.6604 89.8428 14.8966 89.8428 14.04C89.8428 13.1834 89.723 12.4196 89.4821 11.7485C89.2483 11.0773 88.901 10.5468 88.4398 10.1568C87.9797 9.76688 87.4045 9.57195 86.7159 9.57195C86.0214 9.57195 85.4371 9.76688 84.963 10.1568C84.4958 10.5468 84.1421 11.0773 83.9013 11.7485C83.6675 12.4196 83.5513 13.1834 83.5513 14.04C83.5513 14.8966 83.6675 15.6604 83.9013 16.3315C84.1421 17.0027 84.4958 17.5333 84.963 17.9232C85.4371 18.3067 86.0214 18.4985 86.7159 18.4985ZM100.907 12.8607V21.3749H96.7579V6.64758H100.713V9.24594H100.887C101.219 8.38945 101.774 7.71186 102.553 7.21331C103.333 6.70831 104.277 6.45583 105.388 6.45583C106.427 6.45583 107.332 6.67956 108.104 7.12702C108.877 7.57443 109.478 8.21364 109.907 9.0446C110.335 9.86921 110.55 10.8536 110.55 11.9977V21.3749H106.4V12.7264C106.407 11.8251 106.174 11.122 105.699 10.6171C105.225 10.1057 104.572 9.85005 103.742 9.85005C103.183 9.85005 102.69 9.96827 102.261 10.2048C101.839 10.4413 101.508 10.7864 101.267 11.2403C101.034 11.6877 100.914 12.2278 100.907 12.8607ZM113.82 21.3749V6.64758H117.968V21.3749H113.82ZM115.904 4.74916C115.287 4.74916 114.758 4.54781 114.316 4.14511C113.882 3.73601 113.664 3.24703 113.664 2.67813C113.664 2.11563 113.882 1.63304 114.316 1.23034C114.758 0.821248 115.287 0.616699 115.904 0.616699C116.521 0.616699 117.047 0.821248 117.482 1.23034C117.923 1.63304 118.144 2.11563 118.144 2.67813C118.144 3.24703 117.923 3.73601 117.482 4.14511C117.047 4.54781 116.521 4.74916 115.904 4.74916ZM125.052 17.1369L125.061 12.2374H125.666L130.457 6.64758H135.221L128.782 14.0496H127.799L125.052 17.1369ZM121.293 21.3749V1.73851H125.442V21.3749H121.293ZM130.642 21.3749L126.24 14.9605L129.007 12.0744L135.503 21.3749H130.642Z" fill="#F2F2F2"/>
<path d="M115.708 5.0625C117.128 5.0625 118.28 3.92922 118.28 2.53125C118.28 1.13328 117.128 0 115.708 0C114.288 0 113.137 1.13328 113.137 2.53125C113.137 3.92922 114.288 5.0625 115.708 5.0625Z" fill="#B9B9B9"/>
<path d="M68.7295 14.1995C68.8999 12.019 69.9266 10.0399 71.557 8.55418C73.1869 7.06854 75.3268 6.24345 77.5485 6.24414L77.5469 10.5809C76.4353 10.5806 75.365 10.9934 74.5495 11.7367C73.7341 12.4799 73.2336 13.4989 73.1481 14.5898L68.7295 14.1995Z" fill="#F2F2F2"/>
<path d="M68.7311 14.1431H73.139V21.3752H68.7311V14.1431Z" fill="#F2F2F2"/>
</g>
</g>
<defs>
<clipPath id="clip0_4_40">
<rect width="136" height="27" fill="white"/>
</clipPath>
</defs>
</svg>
