<svg width="14" height="14" viewBox="0 0 14 14" fill="none" xmlns="http://www.w3.org/2000/svg">
<path d="M1.16675 13.2708C1.05008 13.2708 0.93923 13.2242 0.857564 13.1425C0.74673 13.0317 0.700092 12.8683 0.740925 12.7167L1.47593 9.96916C0.985931 9.05917 0.729247 8.0325 0.729247 6.99416C0.729247 3.53499 3.54091 0.723328 7.00008 0.723328C10.4592 0.723328 13.2709 3.53499 13.2709 6.99416C13.2709 10.4533 10.4592 13.265 7.00008 13.265C5.94425 13.265 4.91176 13.0025 3.9901 12.5008L1.28342 13.2533C1.24259 13.265 1.20758 13.2708 1.16675 13.2708ZM4.04842 11.5967C4.12425 11.5967 4.20009 11.62 4.27009 11.655C5.09259 12.1392 6.03758 12.3958 7.00008 12.3958C9.97508 12.3958 12.3959 9.975 12.3959 7C12.3959 4.025 9.97508 1.60417 7.00008 1.60417C4.02508 1.60417 1.60425 4.025 1.60425 7C1.60425 7.95083 1.85508 8.87833 2.32758 9.695C2.38591 9.79416 2.40342 9.91667 2.37425 10.0275L1.79092 12.2092L3.93758 11.6142C3.97258 11.6025 4.01342 11.5967 4.04842 11.5967Z" fill="#A5B9CC"/>
<path d="M8.59823 10.36C8.23656 10.36 7.86323 10.2783 7.4724 10.1092C7.1049 9.95167 6.7374 9.74168 6.38157 9.47918C6.03157 9.22251 5.68741 8.93084 5.37241 8.61584C5.05741 8.295 4.76572 7.95668 4.50905 7.60668C4.24655 7.23918 4.03655 6.87751 3.88488 6.52167C3.72155 6.13667 3.63989 5.75751 3.63989 5.39584C3.63989 5.13918 3.68655 4.89418 3.77405 4.66668C3.86738 4.42751 4.01905 4.21167 4.21739 4.02501C4.59072 3.65751 5.12741 3.52335 5.55324 3.72752C5.69908 3.79168 5.82157 3.89668 5.91491 4.03668L6.59156 4.9875C6.66156 5.08084 6.71407 5.18 6.75491 5.27917C6.80157 5.39584 6.83074 5.51252 6.83074 5.62335C6.83074 5.77502 6.7899 5.92668 6.70823 6.06085C6.65573 6.14835 6.57989 6.25335 6.48072 6.35252L6.40489 6.43418C6.43989 6.48084 6.48071 6.53917 6.54488 6.60917C6.66738 6.74917 6.80155 6.90084 6.94738 7.04667C7.09322 7.18667 7.23905 7.32667 7.38488 7.44917C7.45488 7.5075 7.51324 7.55418 7.55991 7.58334L7.64155 7.50167C7.74655 7.39667 7.85157 7.31502 7.95657 7.26252C8.14907 7.14002 8.44656 7.11085 8.70906 7.22168C8.80239 7.25668 8.89572 7.30917 8.99489 7.37917L9.96908 8.0675C10.1032 8.16083 10.2082 8.28917 10.2782 8.435C10.3366 8.58084 10.3599 8.70918 10.3599 8.84335C10.3599 9.01834 10.3191 9.18751 10.2432 9.35084C10.1674 9.50251 10.0799 9.63668 9.97488 9.75918C9.78822 9.96335 9.5724 10.115 9.33907 10.2142C9.10574 10.3133 8.85489 10.36 8.59823 10.36ZM5.12739 4.515C5.09239 4.515 4.97575 4.515 4.82992 4.66084C4.71908 4.76584 4.64323 4.87668 4.59073 4.99918C4.53823 5.12168 4.51489 5.26168 4.51489 5.40168C4.51489 5.64668 4.57322 5.90917 4.68989 6.18917C4.81239 6.48083 4.99323 6.79002 5.2149 7.09918C5.4424 7.40835 5.69907 7.71751 5.9849 8.00334C6.27074 8.28334 6.57406 8.54584 6.88906 8.77917C7.1924 9.00084 7.50157 9.17584 7.81074 9.31C8.25407 9.5025 8.66239 9.54918 8.99489 9.40918C9.11155 9.36251 9.21655 9.28085 9.32155 9.17585C9.37405 9.11752 9.41491 9.05917 9.44991 8.98334C9.46741 8.94251 9.47906 8.89584 9.47906 8.85501C9.47906 8.84334 9.47905 8.82585 9.46155 8.79085L8.48739 8.11418C8.44656 8.08501 8.40572 8.06167 8.37072 8.05C8.34738 8.06167 8.31241 8.07917 8.24824 8.14334L8.02657 8.36501C7.8574 8.53417 7.58907 8.58083 7.37324 8.505L7.26824 8.45834C7.13408 8.38834 6.98239 8.28335 6.81323 8.13752C6.64989 7.99752 6.49241 7.85167 6.32325 7.68834C6.15991 7.51917 6.01407 7.36167 5.87407 7.19834C5.7224 7.01751 5.6174 6.87168 5.5474 6.74918L5.48325 6.59751C5.46575 6.53917 5.45989 6.47501 5.45989 6.41668C5.45989 6.25334 5.51825 6.1075 5.62908 5.99084L5.85075 5.76335C5.91492 5.69918 5.93824 5.66418 5.94991 5.64085C5.93241 5.60002 5.90907 5.56501 5.87991 5.52418L5.19738 4.56168L5.12739 4.515Z" fill="#A5B9CC"/>
</svg>
