<svg width="16" height="16" viewBox="0 0 16 16" fill="none" xmlns="http://www.w3.org/2000/svg">
<path d="M10.0868 12.7067H4.75342C4.48008 12.7067 4.25342 12.48 4.25342 12.2067C4.25342 11.9333 4.48008 11.7067 4.75342 11.7067H10.0868C11.6468 11.7067 12.9201 10.4333 12.9201 8.87333C12.9201 7.31333 11.6468 6.04 10.0868 6.04H2.75342C2.48008 6.04 2.25342 5.81333 2.25342 5.54C2.25342 5.26667 2.48008 5.04 2.75342 5.04H10.0868C12.2001 5.04 13.9201 6.76 13.9201 8.87333C13.9201 10.9867 12.2001 12.7067 10.0868 12.7067Z" fill="#505B6A"/>
<path d="M4.28679 7.70667C4.16012 7.70667 4.03345 7.66 3.93345 7.56L2.22679 5.85333C2.03345 5.66 2.03345 5.34 2.22679 5.14667L3.93345 3.44C4.12679 3.24667 4.44679 3.24667 4.64012 3.44C4.83345 3.63333 4.83345 3.95333 4.64012 4.14667L3.28679 5.5L4.64012 6.85333C4.83345 7.04667 4.83345 7.36667 4.64012 7.56C4.54679 7.66 4.41345 7.70667 4.28679 7.70667Z" fill="#505B6A"/>
</svg>
