<svg width="14" height="14" viewBox="0 0 14 14" fill="none" xmlns="http://www.w3.org/2000/svg">
<path d="M7.00008 13.2708C3.54092 13.2708 0.729248 10.4592 0.729248 7.00001C0.729248 3.54084 3.54092 0.729172 7.00008 0.729172C10.4592 0.729172 13.2709 3.54084 13.2709 7.00001C13.2709 10.4592 10.4592 13.2708 7.00008 13.2708ZM7.00008 1.60417C4.02508 1.60417 1.60425 4.02501 1.60425 7.00001C1.60425 9.97501 4.02508 12.3958 7.00008 12.3958C9.97508 12.3958 12.3959 9.97501 12.3959 7.00001C12.3959 4.02501 9.97508 1.60417 7.00008 1.60417Z" fill="#A5B9CC"/>
<path d="M5.24989 12.6875H4.66656C4.42739 12.6875 4.22906 12.4892 4.22906 12.25C4.22906 12.0108 4.41573 11.8183 4.65489 11.8125C3.73906 8.68583 3.73906 5.31417 4.65489 2.1875C4.41573 2.18167 4.22906 1.98917 4.22906 1.75C4.22906 1.51083 4.42739 1.3125 4.66656 1.3125H5.24989C5.38989 1.3125 5.52406 1.3825 5.60573 1.49333C5.68739 1.61 5.71073 1.75583 5.66406 1.89C4.56739 5.18583 4.56739 8.81417 5.66406 12.1158C5.71073 12.25 5.68739 12.3958 5.60573 12.5125C5.52406 12.6175 5.38989 12.6875 5.24989 12.6875Z" fill="#A5B9CC"/>
<path d="M8.74991 12.6875C8.70324 12.6875 8.65657 12.6817 8.60991 12.6642C8.38241 12.5883 8.25407 12.3375 8.33574 12.11C9.43241 8.81417 9.43241 5.18584 8.33574 1.88417C8.25991 1.65667 8.38241 1.40584 8.60991 1.33C8.84324 1.25417 9.08824 1.37667 9.16407 1.60417C10.3249 5.08084 10.3249 8.9075 9.16407 12.3783C9.10574 12.5708 8.93074 12.6875 8.74991 12.6875Z" fill="#A5B9CC"/>
<path d="M7 10.0333C5.3725 10.0333 3.75083 9.80583 2.1875 9.34499C2.18167 9.57833 1.98917 9.77083 1.75 9.77083C1.51083 9.77083 1.3125 9.57249 1.3125 9.33333V8.74999C1.3125 8.60999 1.3825 8.47583 1.49333 8.39416C1.61 8.31249 1.75583 8.28916 1.89 8.33583C5.18583 9.43249 8.82 9.43249 12.1158 8.33583C12.25 8.28916 12.3958 8.31249 12.5125 8.39416C12.6292 8.47583 12.6933 8.60999 12.6933 8.74999V9.33333C12.6933 9.57249 12.495 9.77083 12.2558 9.77083C12.0167 9.77083 11.8242 9.58416 11.8183 9.34499C10.2492 9.80583 8.6275 10.0333 7 10.0333Z" fill="#A5B9CC"/>
<path d="M12.25 5.6875C12.2033 5.6875 12.1566 5.68167 12.11 5.66417C8.81412 4.5675 5.17996 4.5675 1.88412 5.66417C1.65079 5.74 1.40579 5.6175 1.32996 5.39C1.25996 5.15667 1.38246 4.91167 1.60996 4.83583C5.08662 3.675 8.91329 3.675 12.3841 4.83583C12.6116 4.91167 12.74 5.1625 12.6583 5.39C12.6058 5.57083 12.4308 5.6875 12.25 5.6875Z" fill="#A5B9CC"/>
</svg>
