<svg width="12" height="12" viewBox="0 0 12 12" fill="none" xmlns="http://www.w3.org/2000/svg">
<path d="M8 11.375H1.5C1.02 11.375 0.625 10.98 0.625 10.5V4C0.625 1.79 1.79 0.625 4 0.625H8C10.21 0.625 11.375 1.79 11.375 4V8C11.375 10.21 10.21 11.375 8 11.375ZM4 1.375C2.21 1.375 1.375 2.21 1.375 4V10.5C1.375 10.57 1.43 10.625 1.5 10.625H8C9.79 10.625 10.625 9.79 10.625 8V4C10.625 2.21 9.79 1.375 8 1.375H4Z" fill="#5EACF8"/>
<path d="M8.5 5.125H3.5C3.295 5.125 3.125 4.955 3.125 4.75C3.125 4.545 3.295 4.375 3.5 4.375H8.5C8.705 4.375 8.875 4.545 8.875 4.75C8.875 4.955 8.705 5.125 8.5 5.125Z" fill="#5EACF8"/>
<path d="M7 7.625H3.5C3.295 7.625 3.125 7.455 3.125 7.25C3.125 7.045 3.295 6.875 3.5 6.875H7C7.205 6.875 7.375 7.045 7.375 7.25C7.375 7.455 7.205 7.625 7 7.625Z" fill="#5EACF8"/>
</svg>
