<svg width="131" height="45" viewBox="0 0 531 195" fill="none" xmlns="http://www.w3.org/2000/svg">
<path d="M43.2366 20.2671H112.145C122.603 20.2671 129.496 20.2872 134.606 20.9743C139.444 21.6247 141.246 22.7131 142.362 23.8287C143.478 24.9445 144.566 26.7467 145.217 31.5849C145.903 36.6951 145.924 43.5873 145.924 54.0456V129.71C145.924 140.168 145.903 147.06 145.217 152.171C144.566 157.008 143.478 158.811 142.362 159.927C141.246 161.043 139.444 162.13 134.606 162.782C129.496 163.468 122.603 163.489 112.145 163.489H43.2366C32.7783 163.489 25.886 163.468 20.7757 162.782C15.9376 162.13 14.1354 161.043 13.0197 159.927C11.904 158.811 10.8156 157.008 10.1652 152.171C9.47811 147.06 9.45801 140.168 9.45801 129.71V54.0456C9.45801 43.5873 9.47811 36.6951 10.1652 31.5849C10.8156 26.7467 11.904 24.9445 13.0197 23.8287C14.1354 22.7131 15.9376 21.6247 20.7757 20.9743C25.886 20.2872 32.7783 20.2671 43.2366 20.2671Z" stroke="url(#paint0_linear_7_7)" stroke-width="18.916"/>
<path d="M110.794 75.6642C110.794 80.1 109.92 84.4923 108.223 88.5906C106.525 92.6889 104.037 96.4125 100.9 99.5493C97.7637 102.686 94.0401 105.174 89.9418 106.871C85.8435 108.569 81.4512 109.443 77.0154 109.443C72.5796 109.443 68.187 108.569 64.0887 106.871C59.9907 105.174 56.2668 102.686 53.1303 99.5493C49.9935 96.4125 47.5056 92.6889 45.8079 88.5906C44.1102 84.4923 43.2366 80.1 43.2366 75.6642H56.7927C56.7927 78.3198 57.3156 80.9496 58.332 83.403C59.3484 85.8567 60.8379 88.086 62.7156 89.9637C64.5936 91.8417 66.8229 93.3312 69.2763 94.3476C71.73 95.3637 74.3595 95.8869 77.0154 95.8869C79.671 95.8869 82.3008 95.3637 84.7542 94.3476C87.2079 93.3312 89.4372 91.8417 91.3149 89.9637C93.1929 88.086 94.6824 85.8567 95.6988 83.403C96.7149 80.9496 97.2381 78.3198 97.2381 75.6642H110.794Z" fill="white"/>
<path d="M223.979 105.714L210.157 122.062V152.679H190.538V48.9384H210.157V100.066H210.9L225.614 80.5959L251.326 48.9384H273.918L237.802 92.1885L276.89 152.679H253.556L223.979 105.714ZM345.555 152.679C341.391 152.679 338.073 151.49 335.595 149.112C333.219 146.636 331.731 143.366 331.137 139.303H330.246C328.959 144.356 326.331 148.171 322.368 150.747C318.405 153.224 313.5 154.463 307.653 154.463C299.727 154.463 293.633 152.382 289.373 148.221C285.113 144.059 282.982 138.51 282.982 131.575C282.982 123.549 285.856 117.604 291.603 113.739C297.349 109.776 305.523 107.794 316.125 107.794H329.355V102.146C329.355 97.7868 328.215 94.4181 325.935 92.04C323.655 89.6619 319.989 88.473 314.937 88.473C310.479 88.473 306.861 89.4639 304.086 91.4454C301.413 93.3279 299.133 95.607 297.25 98.2824L285.955 88.1757C288.829 83.7168 292.643 80.1498 297.399 77.4747C302.154 74.7003 308.448 73.3131 316.275 73.3131C326.778 73.3131 334.755 75.6912 340.203 80.4471C345.654 85.2033 348.378 92.04 348.378 100.957V137.519H356.106V152.679H345.555ZM314.046 140.641C318.306 140.641 321.921 139.699 324.894 137.817C327.867 135.934 329.355 133.16 329.355 129.494V119.239H317.166C307.257 119.239 302.304 122.409 302.304 128.751V131.277C302.304 134.448 303.294 136.826 305.277 138.411C307.356 139.897 310.281 140.641 314.046 140.641ZM390.528 152.679C383.988 152.679 379.182 151.045 376.11 147.775C373.038 144.505 371.502 139.897 371.502 133.952V42.6963H390.528V137.519H400.782V152.679H390.528ZM446.55 154.463C440.805 154.463 435.651 153.521 431.094 151.639C426.636 149.657 422.82 146.933 419.649 143.464C416.577 139.897 414.201 135.637 412.515 130.683C410.832 125.629 409.989 119.982 409.989 113.739C409.989 107.596 410.781 102.047 412.368 97.0932C414.051 92.139 416.43 87.9279 419.502 84.4602C422.574 80.8929 426.339 78.1683 430.797 76.2855C435.255 74.304 440.307 73.3131 445.956 73.3131C452.001 73.3131 457.251 74.3535 461.712 76.4343C466.17 78.5151 469.836 81.339 472.71 84.906C475.584 88.473 477.714 92.6346 479.1 97.3905C480.585 102.047 481.329 107.051 481.329 112.402V118.644H429.756V120.576C429.756 126.224 431.343 130.782 434.511 134.25C437.682 137.618 442.389 139.303 448.632 139.303C453.387 139.303 457.251 138.313 460.224 136.33C463.296 134.349 466.02 131.822 468.399 128.751L478.653 140.195C475.485 144.654 471.123 148.171 465.576 150.747C460.125 153.224 453.786 154.463 446.55 154.463ZM446.253 87.5811C441.201 87.5811 437.187 89.2656 434.214 92.6346C431.241 96.0033 429.756 100.363 429.756 105.714V106.903H461.562V105.565C461.562 100.214 460.224 95.9043 457.548 92.6346C454.974 89.2656 451.209 87.5811 446.253 87.5811ZM517.092 152.679C510.552 152.679 505.746 151.045 502.674 147.775C499.602 144.505 498.066 139.897 498.066 133.952V42.6963H517.092V137.519H527.346V152.679H517.092Z" fill="white"/>
<defs>
<linearGradient id="paint0_linear_7_7" x1="77.691" y1="10.8091" x2="77.691" y2="172.946" gradientUnits="userSpaceOnUse">
<stop stop-color="#32FFE6"/>
<stop offset="1" stop-color="#3284FF"/>
</linearGradient>
</defs>
</svg>
