<svg width="101" height="23" viewBox="0 0 101 23" fill="none" xmlns="http://www.w3.org/2000/svg">
<g clip-path="url(#clip0_4_56)">
<path d="M32.2735 22.665H23.6543L28.1683 8.45645H36.789L32.2735 22.665Z" fill="#F1F1F1"/>
<path d="M38.0759 4.39766C37.7248 5.5091 36.5232 6.42432 35.4049 6.42432H30.8434C29.7295 6.42432 29.1049 5.5091 29.4611 4.39766L30.1054 2.3666C30.4609 1.25003 31.6618 0.334815 32.7793 0.334815H37.3416C38.4584 0.334815 39.0801 1.25003 38.7231 2.3666L38.0759 4.39766Z" fill="#F1F1F1"/>
<path d="M52.0434 0.335159L49.1552 9.42145C49.3234 8.88989 49.0294 8.45645 48.4962 8.45645H40.8454C39.7271 8.45645 38.5262 9.36947 38.17 10.4853L34.9447 20.6376C34.5892 21.7527 35.2116 22.665 36.3277 22.665H53.5661L60.6597 0.335159H52.0434ZM45.5752 20.6838C45.4069 21.2161 44.8343 21.6495 44.2996 21.6495H44.2053C43.6772 21.6495 43.3781 21.2161 43.5471 20.6838L46.8039 10.437C46.9735 9.90542 47.5455 9.46978 48.0794 9.46978H48.1737C48.7025 9.46978 48.9994 9.90542 48.8305 10.437L45.5752 20.6838Z" fill="#F1F1F1"/>
<path d="M76.9514 16.0674L78.7257 10.4853C79.0826 9.36947 78.4602 8.45571 77.3441 8.45571H62.1338C61.0199 8.45571 59.8168 9.36947 59.4628 10.4853L56.239 20.6369C55.8813 21.7527 56.5015 22.665 57.6169 22.665H74.856L75.1785 21.6495H66.5608C65.4455 21.6495 64.8238 20.7372 65.1763 19.6214L66.3063 16.0674H76.9514ZM68.0952 10.437C68.2634 9.90542 68.8376 9.46904 69.3693 9.46904H69.4651C69.9975 9.46904 70.2908 9.90542 70.1233 10.437L68.6562 15.0519H66.6295L68.0952 10.437Z" fill="#F1F1F1"/>
<path d="M91.7231 9.47173H100.342L100.666 8.4562H83.4279C82.3111 8.4562 81.108 9.36996 80.7526 10.4858L77.5287 20.6337C77.1718 21.7525 77.7971 22.6655 78.911 22.6655H96.1442L96.4682 21.65H87.8505C86.7352 21.65 86.1135 20.7377 86.4689 19.6197L89.0521 11.4999C89.4032 10.3833 90.6092 9.47173 91.7231 9.47173Z" fill="#F1F1F1"/>
<path d="M27.7081 0.335159L23.1941 14.5452L14.5303 0.335159H7.4309L0.334412 22.665H1.35028L5.8643 8.45645L14.5303 22.665H21.6261L28.724 0.335159H27.7081Z" fill="#F1F1F1"/>
</g>
<defs>
<clipPath id="clip0_4_56">
<rect width="101" height="23" fill="white"/>
</clipPath>
</defs>
</svg>
