<svg width="16" height="16" viewBox="0 0 16 16" fill="none" xmlns="http://www.w3.org/2000/svg">
<path d="M3.69332 13.0133C3.28666 13.0133 2.90666 12.8733 2.63332 12.6133C2.28666 12.2867 2.11999 11.7933 2.17999 11.26L2.42666 9.09999C2.47332 8.69333 2.71999 8.15333 3.00666 7.85999L8.47999 2.06666C9.84666 0.619992 11.2733 0.579992 12.72 1.94666C14.1667 3.31333 14.2067 4.73999 12.84 6.18666L7.36666 11.98C7.08666 12.28 6.56666 12.56 6.15999 12.6267L4.01332 12.9933C3.89999 13 3.79999 13.0133 3.69332 13.0133ZM10.62 1.93999C10.1067 1.93999 9.65999 2.25999 9.20666 2.73999L3.73332 8.53999C3.59999 8.67999 3.44666 9.01333 3.41999 9.20666L3.17332 11.3667C3.14666 11.5867 3.19999 11.7667 3.31999 11.88C3.43999 11.9933 3.61999 12.0333 3.83999 12L5.98666 11.6333C6.17999 11.6 6.49999 11.4267 6.63332 11.2867L12.1067 5.49332C12.9333 4.61332 13.2333 3.79999 12.0267 2.66666C11.4933 2.15333 11.0333 1.93999 10.62 1.93999Z" fill="#5EACF8"/>
<path d="M11.56 7.29998C11.5467 7.29998 11.5267 7.29998 11.5133 7.29998C9.43333 7.09331 7.76 5.51331 7.44 3.44665C7.4 3.17331 7.58666 2.91998 7.86 2.87331C8.13333 2.83331 8.38666 3.01998 8.43333 3.29331C8.68666 4.90665 9.99333 6.14665 11.62 6.30665C11.8933 6.33331 12.0933 6.57998 12.0667 6.85331C12.0333 7.10665 11.8133 7.29998 11.56 7.29998Z" fill="#5EACF8"/>
<path d="M14 15.1666H2C1.72667 15.1666 1.5 14.94 1.5 14.6666C1.5 14.3933 1.72667 14.1666 2 14.1666H14C14.2733 14.1666 14.5 14.3933 14.5 14.6666C14.5 14.94 14.2733 15.1666 14 15.1666Z" fill="#5EACF8"/>
</svg>
