<svg width="16" height="16" viewBox="0 0 16 16" fill="none" xmlns="http://www.w3.org/2000/svg">
<path d="M11.3333 14.1667H4.66668C2.23334 14.1667 0.833344 12.7667 0.833344 10.3333V5.66666C0.833344 3.23333 2.23334 1.83333 4.66668 1.83333H11.3333C13.7667 1.83333 15.1667 3.23333 15.1667 5.66666V10.3333C15.1667 12.7667 13.7667 14.1667 11.3333 14.1667ZM4.66668 2.83333C2.76001 2.83333 1.83334 3.75999 1.83334 5.66666V10.3333C1.83334 12.24 2.76001 13.1667 4.66668 13.1667H11.3333C13.24 13.1667 14.1667 12.24 14.1667 10.3333V5.66666C14.1667 3.75999 13.24 2.83333 11.3333 2.83333H4.66668Z" fill="#505B6A"/>
<path d="M7.99984 8.57998C7.43984 8.57998 6.87318 8.40665 6.43984 8.05331L4.35317 6.38665C4.13984 6.21331 4.09984 5.89998 4.27318 5.68665C4.44651 5.47331 4.75985 5.43332 4.97318 5.60665L7.05984 7.27332C7.56651 7.67998 8.4265 7.67998 8.93317 7.27332L11.0198 5.60665C11.2332 5.43332 11.5532 5.46665 11.7198 5.68665C11.8932 5.89998 11.8598 6.21998 11.6398 6.38665L9.55318 8.05331C9.12651 8.40665 8.55984 8.57998 7.99984 8.57998Z" fill="#505B6A"/>
</svg>
