<svg width="12" height="12" viewBox="0 0 12 12" fill="none" xmlns="http://www.w3.org/2000/svg">
<path d="M6.00008 11.375C5.66508 11.375 5.32508 11.29 5.02508 11.115L2.05508 9.39998C1.45508 9.04998 1.08008 8.40498 1.08008 7.70998V4.29C1.08008 3.595 1.45508 2.94999 2.05508 2.59999L5.02508 0.884998C5.62508 0.534998 6.37008 0.534998 6.97508 0.884998L9.94508 2.59999C10.5451 2.94999 10.9201 3.595 10.9201 4.29V7.70998C10.9201 8.40498 10.5451 9.04998 9.94508 9.39998L6.97508 11.115C6.67508 11.29 6.33508 11.375 6.00008 11.375ZM6.00008 1.37499C5.79508 1.37499 5.58508 1.42999 5.40008 1.53499L2.43008 3.24999C2.06008 3.46499 1.83008 3.86 1.83008 4.29V7.70998C1.83008 8.13498 2.06008 8.53499 2.43008 8.74999L5.40008 10.465C5.77008 10.68 6.23008 10.68 6.60008 10.465L9.57008 8.74999C9.94008 8.53499 10.1701 8.13998 10.1701 7.70998V4.29C10.1701 3.865 9.94008 3.46499 9.57008 3.24999L6.60008 1.53499C6.41508 1.42999 6.20508 1.37499 6.00008 1.37499Z" fill="#505B6A"/>
<path d="M5.99996 5.87503C5.14996 5.87503 4.45996 5.18502 4.45996 4.33502C4.45996 3.48502 5.14996 2.79504 5.99996 2.79504C6.84996 2.79504 7.53996 3.48502 7.53996 4.33502C7.53996 5.18502 6.84996 5.87503 5.99996 5.87503ZM5.99996 3.54504C5.56496 3.54504 5.20996 3.90002 5.20996 4.33502C5.20996 4.77002 5.56496 5.12503 5.99996 5.12503C6.43496 5.12503 6.78996 4.77002 6.78996 4.33502C6.78996 3.90002 6.43496 3.54504 5.99996 3.54504Z" fill="#505B6A"/>
<path d="M8 8.70505C7.795 8.70505 7.625 8.53505 7.625 8.33005C7.625 7.64005 6.895 7.07507 6 7.07507C5.105 7.07507 4.375 7.64005 4.375 8.33005C4.375 8.53505 4.205 8.70505 4 8.70505C3.795 8.70505 3.625 8.53505 3.625 8.33005C3.625 7.22505 4.69 6.32507 6 6.32507C7.31 6.32507 8.375 7.22505 8.375 8.33005C8.375 8.53505 8.205 8.70505 8 8.70505Z" fill="#505B6A"/>
</svg>
